PathFileType	4	(X/Y/Z)	Walk10.trc
DataRate	CameraRate	NumFrames	NumMarkers	Units	OrigDataRate	OrigDataStartFrame	OrigNumFrames
200.000000	200.000000	7	57	mm	200.000000	747	868
Frame#	Times		RCAR		LMT5		RFHD		LTB3		RUA1		LTB2		RASI		LTB4		RElbow		RFA1		LACR1		LLFC		LUA1		LTH1		STRN		RACR1		RTH4		LToe		RTH3		RWRU		LCAR		RBHD		LASI		LTH3		LFHD		RLFC		CLAV		RBack		RTH2		C7		LTH4		LTH2		LElbow		RTB3		RTH1		LWRR		RTB4		RMT1		LFA1		LPSI		RLMAL		LWRU		LTB1		RPSI		RTB1		RTB2		LElbowM		RWRR		LBHD		LMT1		T10		RCAL		RMMAL		LMMAL		LLMAL		LCAL		RElbowM
			X1	Y1	Z1	X2	Y2	Z2	X3	Y3	Z3	X4	Y4	Z4	X5	Y5	Z5	X6	Y6	Z6	X7	Y7	Z7	X8	Y8	Z8	X9	Y9	Z9	X10	Y10	Z10	X11	Y11	Z11	X12	Y12	Z12	X13	Y13	Z13	X14	Y14	Z14	X15	Y15	Z15	X16	Y16	Z16	X17	Y17	Z17	X18	Y18	Z18	X19	Y19	Z19	X20	Y20	Z20	X21	Y21	Z21	X22	Y22	Z22	X23	Y23	Z23	X24	Y24	Z24	X25	Y25	Z25	X26	Y26	Z26	X27	Y27	Z27	X28	Y28	Z28	X29	Y29	Z29	X30	Y30	Z30	X31	Y31	Z31	X32	Y32	Z32	X33	Y33	Z33	X34	Y34	Z34	X35	Y35	Z35	X36	Y36	Z36	X37	Y37	Z37	X38	Y38	Z38	X39	Y39	Z39	X40	Y40	Z40	X41	Y41	Z41	X42	Y42	Z42	X43	Y43	Z43	X44	Y44	Z44	X45	Y45	Z45	X46	Y46	Z46	X47	Y47	Z47	X48	Y48	Z48	X49	Y49	Z49	X50	Y50	Z50	X51	Y51	Z51	X52	Y52	Z52	X53	Y53	Z53	X54	Y54	Z54	X55	Y55	Z55	X56	Y56	Z56	X57	Y57	Z57

747	3.735	781.94	815.77	367.29	1010.4	56.946	-61.725	753.61	1572.6	60.084	920.39	196.66	-25.001	628.51	1179.9	284.49	875.08	273.79	-76.628	724.71	958.28	187.19	901.71	280.16	-22.047	591.59	1058.6	322.57	644.75	920.06	343.63	616.13	1361.2	-127.41	785.18	477.5	-91.258	569.96	1183.8	-219.9	668.26	729.55	-180.67	744.38	1214.7	28.356	627.24	1355.5	182.87	582.08	652.65	219.94	1093.5	105.5	-35.076	555.63	576.3	196.1	706.38	826.9	349.52	515.81	764.81	-285.73	603.63	1534.9	108.44	732.59	941.33	-106.72	738.6	582.05	-127.83	735.36	1572.5	-32.6	520.94	493.56	170.83	687.72	1319.4	25.444	499.75	1303.9	144.67	636.73	641.79	201.23	550.79	1402.1	39.53	702.98	657.6	-149.9	754.86	686.26	-145.06	507.88	1067.8	-240.48	465.5	171.44	85.453	613.28	730	248.65	526.52	810.34	-241.43	493.77	252.11	87.352	511.38	34.764	47.33	477.15	937.38	-263.84	483.42	944.3	-17.296	397.86	70.525	100.99	467.87	821.43	-280.48	884.01	364.94	-22.413	480.97	954.58	71.537	521.58	334.76	95.369	467.31	259	144	484.3	1044.2	-163.67	760.4	858.62	312.04	580.39	1527.1	-31.232	1039.3	84.783	2.8794	473.32	1136.7	30.013	332.11	44.597	61.59	417.62	77.635	20.033	934.63	89.49	34.578	915.25	74.156	-44.675	866.56	30.211	1.3868	586.32	1018.9	230.69
748	3.74	789.12	815.53	366.9	1024.7	59.356	-60.983	759.49	1571.9	59.751	931.43	197.91	-24.733	634.68	1179	284.2	884.9	274.29	-76.465	730.6	957.35	187.35	911.1	281.08	-21.727	597.99	1057.8	322.32	651.55	919.34	343.37	622.48	1360.2	-127.77	791.05	476.33	-91.302	575.52	1182.9	-220.21	673.95	728.35	-180.76	750.59	1213.6	28.276	633.29	1354.6	182.57	586.89	652.05	219.99	1106.8	109.54	-33.774	559.99	575.88	196.12	713.5	826.37	349.19	519.36	764.11	-286.17	609.6	1533.8	108.05	739	940.24	-106.66	744.14	580.59	-128.19	741.28	1571.8	-32.939	524.81	493.34	170.76	693.98	1318.4	25.182	505.84	1303	144.22	641.45	640.94	201.17	557.01	1401.1	39.102	708.6	656.24	-150.26	760.53	684.87	-145.15	512.96	1067.1	-240.56	466.68	171.66	85.467	618.56	729.22	248.71	530.56	809.6	-241.93	495.64	252.08	87.381	511.46	34.809	47.299	481.58	936.84	-263.91	489.71	943.3	-17.52	398.22	71.284	100.98	471.73	820.96	-280.62	891.72	365.53	-22.022	487.15	953.63	71.266	524.2	334.49	95.394	469.19	259.19	144	489.78	1043.5	-163.66	767.37	858.28	311.65	586.43	1525.9	-31.626	1052.5	87.983	3.7396	479.55	1135.7	29.611	332.24	45.88	61.518	418.03	78.263	20.018	947.61	90.852	34.741	929	75.183	-44.628	881.07	30.152	1.2419	592.52	1017.9	230.52
749	3.745	796.2	815.23	366.49	1038.2	61.697	-60.294	765.39	1571.2	59.406	941.99	199.04	-24.454	640.82	1178.2	283.9	894.43	274.75	-76.298	736.53	956.44	187.53	920.17	281.88	-21.38	604.35	1056.9	322.04	658.29	918.61	343.07	628.85	1359.1	-128.15	797.05	475.24	-91.326	581.17	1182	-220.53	679.63	727.15	-180.85	756.83	1212.5	28.171	639.35	1353.7	182.25	591.78	651.45	220.03	1119.3	113.31	-32.407	564.45	575.47	196.13	720.51	825.8	348.83	523.05	763.39	-286.57	615.57	1532.7	107.63	745.49	939.16	-106.56	749.8	579.21	-128.49	747.22	1571	-33.292	528.81	493.14	170.7	700.27	1317.4	24.895	511.95	1302	143.74	646.27	640.11	201.09	563.25	1400.1	38.646	714.28	654.93	-150.58	766.23	683.57	-145.24	518.12	1066.3	-240.65	467.91	171.91	85.5	623.92	728.46	248.76	534.73	808.86	-242.41	497.56	252.06	87.409	511.53	34.865	47.276	486.14	936.28	-263.99	496.05	942.31	-17.792	398.6	72.088	101.02	475.73	820.47	-280.76	899.28	366.01	-21.586	493.38	952.7	70.948	526.9	334.21	95.406	471.17	259.4	144.02	495.33	1042.7	-163.66	774.24	857.9	311.23	592.49	1524.8	-32.048	1065	90.944	4.6211	485.81	1134.8	29.186	332.39	47.224	61.528	418.44	78.931	20.049	959.86	92.1	34.901	942.05	76.176	-44.627	894.75	30.116	0.99668	598.69	1017	230.3
750	3.75	803.16	814.88	366.05	1050.8	63.92	-59.668	771.3	1570.5	59.049	952.06	200.01	-24.162	646.93	1177.3	283.59	903.66	275.15	-76.122	742.48	955.56	187.73	928.91	282.55	-21.007	610.69	1056.1	321.72	664.95	917.87	342.75	635.25	1358	-128.56	803.2	474.23	-91.328	586.92	1181	-220.86	685.32	725.96	-180.92	763.08	1211.5	28.042	645.42	1352.8	181.91	596.76	650.86	220.06	1131.1	116.75	-30.989	569.02	575.07	196.13	727.41	825.21	348.45	526.87	762.66	-286.93	621.54	1531.6	107.19	752.04	938.08	-106.43	755.6	577.94	-128.73	753.18	1570.3	-33.658	532.95	492.95	170.67	706.58	1316.4	24.582	518.07	1301.1	143.23	651.16	639.29	201.02	569.51	1399.2	38.164	720.01	653.68	-150.86	771.98	682.36	-145.35	523.39	1065.6	-240.76	469.19	172.18	85.549	629.34	727.71	248.78	539.02	808.1	-242.85	499.54	252.06	87.434	511.59	34.933	47.261	490.82	935.71	-264.08	502.43	941.34	-18.114	399.01	72.938	101.12	479.85	819.95	-280.9	906.69	366.37	-21.114	499.65	951.77	70.585	529.68	333.94	95.404	473.25	259.62	144.05	500.95	1041.9	-163.7	781.02	857.45	310.79	598.57	1523.7	-32.497	1076.7	93.607	5.5199	492.11	1133.8	28.742	332.56	48.628	61.625	418.84	79.642	20.128	971.37	93.196	35.066	954.37	77.085	-44.655	907.57	30.071	0.6739	604.86	1016.1	230.04
751	3.755	810	814.48	365.59	1062.6	65.97	-59.105	777.22	1569.8	58.682	961.63	200.81	-23.855	653.01	1176.5	283.27	912.58	275.45	-75.935	748.47	954.71	187.95	937.32	283.05	-20.61	616.99	1055.2	321.36	671.53	917.13	342.38	641.68	1356.9	-129	809.48	473.3	-91.309	592.75	1180.1	-221.2	691.03	724.8	-180.97	769.36	1210.4	27.889	651.52	1351.9	181.54	601.82	650.29	220.09	1142.2	119.77	-29.531	573.68	574.67	196.13	734.2	824.59	348.05	530.85	761.91	-287.27	627.53	1530.5	106.73	758.68	937.03	-106.26	761.56	576.78	-128.9	759.16	1569.6	-34.036	537.22	492.77	170.67	712.9	1315.5	24.243	524.21	1300.1	142.69	656.15	638.48	200.95	575.78	1398.2	37.656	725.83	652.5	-151.07	777.8	681.26	-145.45	528.76	1064.8	-240.89	470.53	172.49	85.614	634.83	726.98	248.78	543.44	807.32	-243.26	501.59	252.07	87.455	511.65	35.013	47.255	495.62	935.12	-264.18	508.86	940.37	-18.482	399.46	73.836	101.27	484.11	819.41	-281.04	913.96	366.59	-20.611	505.95	950.85	70.177	532.55	333.67	95.389	475.44	259.86	144.1	506.65	1041.1	-163.76	787.69	856.96	310.32	604.67	1522.6	-32.973	1087.7	95.917	6.432	498.45	1132.9	28.278	332.76	50.094	61.815	419.23	80.398	20.255	982.12	94.107	35.247	965.93	77.863	-44.691	919.51	29.987	0.29845	611.03	1015.2	229.74
752	3.76	816.73	814.02	365.11	1073.4	67.784	-58.595	783.15	1569.1	58.303	970.71	201.4	-23.527	659.07	1175.6	282.93	921.19	275.64	-75.731	754.5	953.89	188.17	945.42	283.38	-20.191	623.26	1054.4	320.96	678.04	916.39	341.99	648.13	1355.8	-129.45	815.91	472.45	-91.269	598.67	1179.1	-221.56	696.78	723.67	-181.01	775.66	1209.4	27.712	657.63	1351.1	181.16	606.96	649.73	220.1	1152.5	122.33	-28.05	578.45	574.28	196.14	740.88	823.94	347.62	534.96	761.15	-287.58	633.52	1529.5	106.24	765.38	936	-106.08	767.68	575.75	-129	765.16	1568.9	-34.428	541.61	492.6	170.68	719.26	1314.5	23.878	530.38	1299.2	142.12	661.22	637.69	200.89	582.07	1397.3	37.122	731.75	651.4	-151.23	783.69	680.27	-145.56	534.24	1064	-241.04	471.91	172.82	85.695	640.38	726.27	248.77	547.97	806.53	-243.65	503.7	252.1	87.471	511.71	35.106	47.258	500.54	934.51	-264.29	515.35	939.43	-18.895	399.94	74.786	101.48	488.51	818.85	-281.17	921.09	366.66	-20.084	512.3	949.95	69.727	535.51	333.39	95.36	477.74	260.11	144.16	512.41	1040.4	-163.85	794.27	856.42	309.83	610.78	1521.5	-33.477	1097.9	97.825	7.3534	504.82	1131.9	27.797	332.98	51.629	62.098	419.63	81.204	20.43	992.11	94.801	35.452	976.71	78.468	-44.716	930.56	29.844	-0.10414	617.18	1014.3	229.4
753	3.765	823.34	813.51	364.61	1083.5	69.291	-58.12	789.1	1568.5	57.914	979.3	201.77	-23.175	665.11	1174.8	282.57	929.46	275.7	-75.508	760.57	953.09	188.4	953.21	283.52	-19.75	629.49	1053.6	320.53	684.46	915.64	341.55	654.6	1354.8	-129.93	822.48	471.69	-91.212	604.68	1178.1	-221.92	702.59	722.58	-181.03	781.99	1208.4	27.511	663.76	1350.3	180.75	612.19	649.18	220.11	1162.1	124.36	-26.559	583.32	573.88	196.13	747.44	823.28	347.17	539.22	760.37	-287.86	639.52	1528.5	105.72	772.15	934.99	-105.89	773.97	574.83	-129.04	771.18	1568.2	-34.832	546.14	492.43	170.72	725.63	1313.6	23.488	536.57	1298.3	141.53	666.4	636.92	200.85	588.38	1396.4	36.562	737.77	650.38	-151.32	789.69	679.4	-145.65	539.82	1063.2	-241.21	473.36	173.18	85.79	646	725.58	248.74	552.63	805.73	-244	505.89	252.14	87.481	511.77	35.213	47.271	505.59	933.89	-264.42	521.88	938.52	-19.347	400.47	75.788	101.74	493.05	818.26	-281.31	928.1	366.59	-19.54	518.7	949.07	69.241	538.57	333.11	95.319	480.15	260.37	144.24	518.24	1039.6	-163.96	800.74	855.84	309.31	616.91	1520.5	-34.007	1107.3	99.287	8.2801	511.23	1131	27.301	333.24	53.237	62.476	420.03	82.062	20.652	1001.3	95.257	35.689	986.69	78.864	-44.712	940.71	29.623	-0.50979	623.33	1013.4	229
